<mxfile host="app.diagrams.net" modified="2023-11-16T17:55:03.565Z" agent="Mozilla/5.0 (Windows NT 10.0; Win64; x64) AppleWebKit/537.36 (KHTML, like Gecko) Chrome/119.0.0.0 Safari/537.36" etag="nRau6-YXLb88Nkpr6Rs9" version="22.1.2" type="device">
  <diagram name="Page-1" id="4uAd-EM4fdoZpNNmC9c0">
    <mxGraphModel dx="2514" dy="908" grid="1" gridSize="10" guides="1" tooltips="1" connect="1" arrows="1" fold="1" page="1" pageScale="1" pageWidth="827" pageHeight="1169" math="0" shadow="0">
      <root>
        <mxCell id="0" />
        <mxCell id="1" parent="0" />
        <mxCell id="9V2yh8_go57z5YyNE77b-2" value="Actor" style="shape=umlActor;verticalLabelPosition=bottom;verticalAlign=top;html=1;outlineConnect=0;" vertex="1" parent="1">
          <mxGeometry x="-225" y="55" width="30" height="60" as="geometry" />
        </mxCell>
        <mxCell id="9V2yh8_go57z5YyNE77b-3" value="Actor" style="shape=umlActor;verticalLabelPosition=bottom;verticalAlign=top;html=1;outlineConnect=0;" vertex="1" parent="1">
          <mxGeometry x="160" y="50" width="30" height="60" as="geometry" />
        </mxCell>
        <mxCell id="9V2yh8_go57z5YyNE77b-4" value="Actor" style="shape=umlActor;verticalLabelPosition=bottom;verticalAlign=top;html=1;outlineConnect=0;" vertex="1" parent="1">
          <mxGeometry x="555" y="50" width="30" height="60" as="geometry" />
        </mxCell>
        <mxCell id="9V2yh8_go57z5YyNE77b-5" value="" style="rounded=0;whiteSpace=wrap;html=1;" vertex="1" parent="1">
          <mxGeometry x="-220" y="200" width="20" height="290" as="geometry" />
        </mxCell>
        <mxCell id="9V2yh8_go57z5YyNE77b-6" value="SNMP&lt;br&gt;Manager" style="text;html=1;strokeColor=none;fillColor=none;align=center;verticalAlign=middle;whiteSpace=wrap;rounded=0;" vertex="1" parent="1">
          <mxGeometry x="-240" y="140" width="60" height="30" as="geometry" />
        </mxCell>
        <mxCell id="9V2yh8_go57z5YyNE77b-7" value="" style="endArrow=none;dashed=1;html=1;rounded=0;exitX=0.5;exitY=0;exitDx=0;exitDy=0;entryX=0.5;entryY=1;entryDx=0;entryDy=0;" edge="1" parent="1" source="9V2yh8_go57z5YyNE77b-5" target="9V2yh8_go57z5YyNE77b-6">
          <mxGeometry width="50" height="50" relative="1" as="geometry">
            <mxPoint x="390" y="320" as="sourcePoint" />
            <mxPoint x="-280" y="170" as="targetPoint" />
          </mxGeometry>
        </mxCell>
        <mxCell id="9V2yh8_go57z5YyNE77b-8" value="" style="endArrow=none;dashed=1;html=1;rounded=0;exitX=0.5;exitY=1;exitDx=0;exitDy=0;entryX=0.5;entryY=0;entryDx=0;entryDy=0;" edge="1" parent="1" source="9V2yh8_go57z5YyNE77b-5" target="9V2yh8_go57z5YyNE77b-86">
          <mxGeometry width="50" height="50" relative="1" as="geometry">
            <mxPoint x="390" y="320" as="sourcePoint" />
            <mxPoint x="-190" y="930" as="targetPoint" />
          </mxGeometry>
        </mxCell>
        <mxCell id="9V2yh8_go57z5YyNE77b-9" value="SNMP&lt;br&gt;Agent" style="text;html=1;strokeColor=none;fillColor=none;align=center;verticalAlign=middle;whiteSpace=wrap;rounded=0;" vertex="1" parent="1">
          <mxGeometry x="145" y="140" width="60" height="30" as="geometry" />
        </mxCell>
        <mxCell id="9V2yh8_go57z5YyNE77b-11" value="" style="rounded=0;whiteSpace=wrap;html=1;" vertex="1" parent="1">
          <mxGeometry x="165" y="230" width="20" height="60" as="geometry" />
        </mxCell>
        <mxCell id="9V2yh8_go57z5YyNE77b-12" value="" style="endArrow=none;dashed=1;html=1;rounded=0;entryX=0.5;entryY=1;entryDx=0;entryDy=0;exitX=0.5;exitY=0;exitDx=0;exitDy=0;" edge="1" parent="1" source="9V2yh8_go57z5YyNE77b-11" target="9V2yh8_go57z5YyNE77b-9">
          <mxGeometry width="50" height="50" relative="1" as="geometry">
            <mxPoint x="220" y="360" as="sourcePoint" />
            <mxPoint x="270" y="310" as="targetPoint" />
          </mxGeometry>
        </mxCell>
        <mxCell id="9V2yh8_go57z5YyNE77b-13" value="Request&amp;nbsp;&lt;br&gt;Listner" style="whiteSpace=wrap;html=1;aspect=fixed;" vertex="1" parent="1">
          <mxGeometry x="240" y="50" width="70" height="70" as="geometry" />
        </mxCell>
        <mxCell id="9V2yh8_go57z5YyNE77b-14" value="" style="rounded=0;whiteSpace=wrap;html=1;" vertex="1" parent="1">
          <mxGeometry x="265" y="250" width="20" height="30" as="geometry" />
        </mxCell>
        <mxCell id="9V2yh8_go57z5YyNE77b-15" value="" style="endArrow=none;dashed=1;html=1;rounded=0;entryX=0.5;entryY=1;entryDx=0;entryDy=0;exitX=0.5;exitY=0;exitDx=0;exitDy=0;" edge="1" parent="1" source="9V2yh8_go57z5YyNE77b-14" target="9V2yh8_go57z5YyNE77b-13">
          <mxGeometry width="50" height="50" relative="1" as="geometry">
            <mxPoint x="185" y="240" as="sourcePoint" />
            <mxPoint x="185" y="180" as="targetPoint" />
          </mxGeometry>
        </mxCell>
        <mxCell id="9V2yh8_go57z5YyNE77b-16" value="&amp;lt;&amp;lt;thread&amp;gt;&amp;gt;&lt;br&gt;&lt;br&gt;Request&amp;nbsp;&lt;br&gt;Handler" style="whiteSpace=wrap;html=1;aspect=fixed;" vertex="1" parent="1">
          <mxGeometry x="340" y="210" width="70" height="70" as="geometry" />
        </mxCell>
        <mxCell id="9V2yh8_go57z5YyNE77b-17" value="" style="rounded=0;whiteSpace=wrap;html=1;" vertex="1" parent="1">
          <mxGeometry x="365" y="280" width="20" height="180" as="geometry" />
        </mxCell>
        <mxCell id="9V2yh8_go57z5YyNE77b-18" value="&amp;lt;&amp;lt;thread&amp;gt;&amp;gt;&lt;br&gt;&lt;br&gt;Request&amp;nbsp;&lt;br&gt;Handler" style="whiteSpace=wrap;html=1;aspect=fixed;" vertex="1" parent="1">
          <mxGeometry x="450" y="50" width="70" height="70" as="geometry" />
        </mxCell>
        <mxCell id="9V2yh8_go57z5YyNE77b-19" value="" style="rounded=0;whiteSpace=wrap;html=1;" vertex="1" parent="1">
          <mxGeometry x="475" y="360" width="20" height="80" as="geometry" />
        </mxCell>
        <mxCell id="9V2yh8_go57z5YyNE77b-20" value="" style="rounded=0;whiteSpace=wrap;html=1;" vertex="1" parent="1">
          <mxGeometry x="560" y="370" width="20" height="60" as="geometry" />
        </mxCell>
        <mxCell id="9V2yh8_go57z5YyNE77b-21" value="" style="endArrow=none;dashed=1;html=1;rounded=0;entryX=0.5;entryY=1;entryDx=0;entryDy=0;exitX=0.5;exitY=0;exitDx=0;exitDy=0;" edge="1" parent="1" source="9V2yh8_go57z5YyNE77b-64" target="9V2yh8_go57z5YyNE77b-11">
          <mxGeometry width="50" height="50" relative="1" as="geometry">
            <mxPoint x="180" y="845" as="sourcePoint" />
            <mxPoint x="270" y="200" as="targetPoint" />
          </mxGeometry>
        </mxCell>
        <mxCell id="9V2yh8_go57z5YyNE77b-22" value="" style="endArrow=none;dashed=1;html=1;rounded=0;entryX=0.5;entryY=1;entryDx=0;entryDy=0;" edge="1" parent="1" target="9V2yh8_go57z5YyNE77b-14">
          <mxGeometry width="50" height="50" relative="1" as="geometry">
            <mxPoint x="275" y="1100" as="sourcePoint" />
            <mxPoint x="185" y="180" as="targetPoint" />
          </mxGeometry>
        </mxCell>
        <mxCell id="9V2yh8_go57z5YyNE77b-23" value="" style="endArrow=none;dashed=1;html=1;rounded=0;entryX=0.5;entryY=1;entryDx=0;entryDy=0;exitX=0.5;exitY=0;exitDx=0;exitDy=0;" edge="1" parent="1" source="9V2yh8_go57z5YyNE77b-19" target="9V2yh8_go57z5YyNE77b-18">
          <mxGeometry width="50" height="50" relative="1" as="geometry">
            <mxPoint x="195" y="250" as="sourcePoint" />
            <mxPoint x="195" y="190" as="targetPoint" />
          </mxGeometry>
        </mxCell>
        <mxCell id="9V2yh8_go57z5YyNE77b-24" value="" style="endArrow=none;dashed=1;html=1;rounded=0;entryX=0.5;entryY=1;entryDx=0;entryDy=0;" edge="1" parent="1" target="9V2yh8_go57z5YyNE77b-19">
          <mxGeometry width="50" height="50" relative="1" as="geometry">
            <mxPoint x="490" y="1100" as="sourcePoint" />
            <mxPoint x="205" y="200" as="targetPoint" />
          </mxGeometry>
        </mxCell>
        <mxCell id="9V2yh8_go57z5YyNE77b-25" value="" style="endArrow=none;dashed=1;html=1;rounded=0;exitX=0.5;exitY=0;exitDx=0;exitDy=0;" edge="1" parent="1" source="9V2yh8_go57z5YyNE77b-20">
          <mxGeometry width="50" height="50" relative="1" as="geometry">
            <mxPoint x="215" y="270" as="sourcePoint" />
            <mxPoint x="570" y="170" as="targetPoint" />
          </mxGeometry>
        </mxCell>
        <mxCell id="9V2yh8_go57z5YyNE77b-26" value="" style="endArrow=none;dashed=1;html=1;rounded=0;entryX=0.5;entryY=1;entryDx=0;entryDy=0;exitX=0.5;exitY=0;exitDx=0;exitDy=0;" edge="1" parent="1" source="9V2yh8_go57z5YyNE77b-46" target="9V2yh8_go57z5YyNE77b-20">
          <mxGeometry width="50" height="50" relative="1" as="geometry">
            <mxPoint x="570" y="550" as="sourcePoint" />
            <mxPoint x="225" y="220" as="targetPoint" />
          </mxGeometry>
        </mxCell>
        <mxCell id="9V2yh8_go57z5YyNE77b-27" value="" style="endArrow=classic;html=1;rounded=0;entryX=0;entryY=0;entryDx=0;entryDy=0;exitX=0.957;exitY=0.105;exitDx=0;exitDy=0;exitPerimeter=0;" edge="1" parent="1" source="9V2yh8_go57z5YyNE77b-5" target="9V2yh8_go57z5YyNE77b-11">
          <mxGeometry width="50" height="50" relative="1" as="geometry">
            <mxPoint x="80" y="230" as="sourcePoint" />
            <mxPoint x="270" y="340" as="targetPoint" />
          </mxGeometry>
        </mxCell>
        <mxCell id="9V2yh8_go57z5YyNE77b-28" value="" style="endArrow=classic;html=1;rounded=0;entryX=0;entryY=0;entryDx=0;entryDy=0;exitX=1.01;exitY=0.317;exitDx=0;exitDy=0;exitPerimeter=0;" edge="1" parent="1" source="9V2yh8_go57z5YyNE77b-11">
          <mxGeometry width="50" height="50" relative="1" as="geometry">
            <mxPoint x="190" y="250" as="sourcePoint" />
            <mxPoint x="265" y="250" as="targetPoint" />
          </mxGeometry>
        </mxCell>
        <mxCell id="9V2yh8_go57z5YyNE77b-29" value="" style="endArrow=classic;html=1;rounded=0;entryX=0;entryY=0;entryDx=0;entryDy=0;exitX=1;exitY=0.5;exitDx=0;exitDy=0;" edge="1" parent="1" source="9V2yh8_go57z5YyNE77b-14">
          <mxGeometry width="50" height="50" relative="1" as="geometry">
            <mxPoint x="290" y="265" as="sourcePoint" />
            <mxPoint x="340" y="264.8" as="targetPoint" />
          </mxGeometry>
        </mxCell>
        <mxCell id="9V2yh8_go57z5YyNE77b-30" value="" style="endArrow=classic;html=1;rounded=0;entryX=0;entryY=0;entryDx=0;entryDy=0;exitX=0.957;exitY=0.105;exitDx=0;exitDy=0;exitPerimeter=0;" edge="1" parent="1">
          <mxGeometry width="50" height="50" relative="1" as="geometry">
            <mxPoint x="384" y="360" as="sourcePoint" />
            <mxPoint x="475" y="360" as="targetPoint" />
          </mxGeometry>
        </mxCell>
        <mxCell id="9V2yh8_go57z5YyNE77b-31" value="" style="endArrow=classic;html=1;rounded=0;entryX=0;entryY=0;entryDx=0;entryDy=0;exitX=0.957;exitY=0.105;exitDx=0;exitDy=0;exitPerimeter=0;" edge="1" parent="1">
          <mxGeometry width="50" height="50" relative="1" as="geometry">
            <mxPoint x="476" y="440" as="sourcePoint" />
            <mxPoint x="385" y="440" as="targetPoint" />
          </mxGeometry>
        </mxCell>
        <mxCell id="9V2yh8_go57z5YyNE77b-32" value="" style="endArrow=classic;html=1;rounded=0;entryX=0;entryY=0;entryDx=0;entryDy=0;exitX=0.95;exitY=0.118;exitDx=0;exitDy=0;exitPerimeter=0;" edge="1" parent="1" source="9V2yh8_go57z5YyNE77b-19">
          <mxGeometry width="50" height="50" relative="1" as="geometry">
            <mxPoint x="500" y="370" as="sourcePoint" />
            <mxPoint x="560" y="370" as="targetPoint" />
          </mxGeometry>
        </mxCell>
        <mxCell id="9V2yh8_go57z5YyNE77b-33" value="" style="html=1;labelBackgroundColor=#ffffff;startArrow=none;startFill=0;startSize=6;endArrow=classic;endFill=1;endSize=6;jettySize=auto;orthogonalLoop=1;strokeWidth=1;dashed=1;fontSize=14;rounded=0;entryX=0.99;entryY=0.873;entryDx=0;entryDy=0;exitX=0;exitY=1;exitDx=0;exitDy=0;entryPerimeter=0;" edge="1" parent="1" source="9V2yh8_go57z5YyNE77b-20" target="9V2yh8_go57z5YyNE77b-19">
          <mxGeometry width="60" height="60" relative="1" as="geometry">
            <mxPoint x="430" y="330" as="sourcePoint" />
            <mxPoint x="370" y="390" as="targetPoint" />
          </mxGeometry>
        </mxCell>
        <mxCell id="9V2yh8_go57z5YyNE77b-34" value="" style="html=1;labelBackgroundColor=#ffffff;startArrow=none;startFill=0;startSize=6;endArrow=classic;endFill=1;endSize=6;jettySize=auto;orthogonalLoop=1;strokeWidth=1;dashed=1;fontSize=14;rounded=0;entryX=0.93;entryY=0.823;entryDx=0;entryDy=0;exitX=0;exitY=1;exitDx=0;exitDy=0;entryPerimeter=0;" edge="1" parent="1" target="9V2yh8_go57z5YyNE77b-11">
          <mxGeometry width="60" height="60" relative="1" as="geometry">
            <mxPoint x="265" y="279.6" as="sourcePoint" />
            <mxPoint x="200" y="279.6" as="targetPoint" />
          </mxGeometry>
        </mxCell>
        <mxCell id="9V2yh8_go57z5YyNE77b-35" value="" style="endArrow=classic;html=1;rounded=0;entryX=0.97;entryY=0.9;entryDx=0;entryDy=0;exitX=0.957;exitY=0.105;exitDx=0;exitDy=0;exitPerimeter=0;entryPerimeter=0;" edge="1" parent="1" target="9V2yh8_go57z5YyNE77b-5">
          <mxGeometry width="50" height="50" relative="1" as="geometry">
            <mxPoint x="365" y="460" as="sourcePoint" />
            <mxPoint x="274" y="460" as="targetPoint" />
          </mxGeometry>
        </mxCell>
        <mxCell id="9V2yh8_go57z5YyNE77b-36" value="" style="shape=flexArrow;endArrow=classic;html=1;rounded=0;" edge="1" parent="1">
          <mxGeometry width="50" height="50" relative="1" as="geometry">
            <mxPoint x="-260" y="278" as="sourcePoint" />
            <mxPoint x="-260" y="548" as="targetPoint" />
          </mxGeometry>
        </mxCell>
        <mxCell id="9V2yh8_go57z5YyNE77b-37" value="Time" style="text;html=1;align=center;verticalAlign=middle;resizable=0;points=[];autosize=1;strokeColor=none;fillColor=none;" vertex="1" parent="1">
          <mxGeometry x="-285" y="245" width="50" height="30" as="geometry" />
        </mxCell>
        <mxCell id="9V2yh8_go57z5YyNE77b-38" value="request(udp)" style="text;html=1;align=center;verticalAlign=middle;resizable=0;points=[];autosize=1;strokeColor=none;fillColor=none;" vertex="1" parent="1">
          <mxGeometry x="75" y="200" width="90" height="30" as="geometry" />
        </mxCell>
        <mxCell id="9V2yh8_go57z5YyNE77b-39" value="get/setData()" style="text;html=1;align=center;verticalAlign=middle;resizable=0;points=[];autosize=1;strokeColor=none;fillColor=none;" vertex="1" parent="1">
          <mxGeometry x="385" y="330" width="90" height="30" as="geometry" />
        </mxCell>
        <mxCell id="9V2yh8_go57z5YyNE77b-40" value="get/set()" style="text;html=1;align=center;verticalAlign=middle;resizable=0;points=[];autosize=1;strokeColor=none;fillColor=none;" vertex="1" parent="1">
          <mxGeometry x="490" y="340" width="70" height="30" as="geometry" />
        </mxCell>
        <mxCell id="9V2yh8_go57z5YyNE77b-41" value="return" style="text;html=1;align=center;verticalAlign=middle;resizable=0;points=[];autosize=1;strokeColor=none;fillColor=none;" vertex="1" parent="1">
          <mxGeometry x="505" y="398" width="50" height="30" as="geometry" />
        </mxCell>
        <mxCell id="9V2yh8_go57z5YyNE77b-42" value="Condition&amp;nbsp;&lt;br&gt;Checker" style="whiteSpace=wrap;html=1;aspect=fixed;" vertex="1" parent="1">
          <mxGeometry x="870" y="410" width="80" height="80" as="geometry" />
        </mxCell>
        <mxCell id="9V2yh8_go57z5YyNE77b-43" value="Device&lt;br&gt;Handler" style="whiteSpace=wrap;html=1;aspect=fixed;" vertex="1" parent="1">
          <mxGeometry x="680" y="410" width="80" height="80" as="geometry" />
        </mxCell>
        <mxCell id="9V2yh8_go57z5YyNE77b-44" value="" style="rounded=0;whiteSpace=wrap;html=1;" vertex="1" parent="1">
          <mxGeometry x="900" y="670" width="20" height="245" as="geometry" />
        </mxCell>
        <mxCell id="9V2yh8_go57z5YyNE77b-45" value="" style="rounded=0;whiteSpace=wrap;html=1;" vertex="1" parent="1">
          <mxGeometry x="710" y="700" width="20" height="80" as="geometry" />
        </mxCell>
        <mxCell id="9V2yh8_go57z5YyNE77b-46" value="" style="rounded=0;whiteSpace=wrap;html=1;" vertex="1" parent="1">
          <mxGeometry x="560" y="700" width="20" height="80" as="geometry" />
        </mxCell>
        <mxCell id="9V2yh8_go57z5YyNE77b-47" value="" style="rounded=0;whiteSpace=wrap;html=1;" vertex="1" parent="1">
          <mxGeometry x="910" y="830" width="20" height="60" as="geometry" />
        </mxCell>
        <mxCell id="9V2yh8_go57z5YyNE77b-48" value="" style="endArrow=classic;html=1;rounded=0;entryX=1;entryY=0;entryDx=0;entryDy=0;exitX=0.957;exitY=0.105;exitDx=0;exitDy=0;exitPerimeter=0;" edge="1" parent="1" target="9V2yh8_go57z5YyNE77b-45">
          <mxGeometry width="50" height="50" relative="1" as="geometry">
            <mxPoint x="900" y="700" as="sourcePoint" />
            <mxPoint x="809" y="700" as="targetPoint" />
          </mxGeometry>
        </mxCell>
        <mxCell id="9V2yh8_go57z5YyNE77b-49" value="" style="endArrow=classic;html=1;rounded=0;entryX=0;entryY=0.446;entryDx=0;entryDy=0;exitX=0.957;exitY=0.105;exitDx=0;exitDy=0;exitPerimeter=0;entryPerimeter=0;" edge="1" parent="1" target="9V2yh8_go57z5YyNE77b-44">
          <mxGeometry width="50" height="50" relative="1" as="geometry">
            <mxPoint x="730" y="779.31" as="sourcePoint" />
            <mxPoint x="821" y="779.31" as="targetPoint" />
          </mxGeometry>
        </mxCell>
        <mxCell id="9V2yh8_go57z5YyNE77b-50" value="" style="endArrow=classic;html=1;rounded=0;entryX=1;entryY=0;entryDx=0;entryDy=0;exitX=0.957;exitY=0.105;exitDx=0;exitDy=0;exitPerimeter=0;" edge="1" parent="1" target="9V2yh8_go57z5YyNE77b-46">
          <mxGeometry width="50" height="50" relative="1" as="geometry">
            <mxPoint x="711" y="699.31" as="sourcePoint" />
            <mxPoint x="620" y="699.31" as="targetPoint" />
          </mxGeometry>
        </mxCell>
        <mxCell id="9V2yh8_go57z5YyNE77b-51" value="" style="html=1;labelBackgroundColor=#ffffff;startArrow=none;startFill=0;startSize=6;endArrow=classic;endFill=1;endSize=6;jettySize=auto;orthogonalLoop=1;strokeWidth=1;dashed=1;fontSize=14;rounded=0;entryX=0;entryY=1;entryDx=0;entryDy=0;exitX=1;exitY=1;exitDx=0;exitDy=0;" edge="1" parent="1" source="9V2yh8_go57z5YyNE77b-46" target="9V2yh8_go57z5YyNE77b-45">
          <mxGeometry width="60" height="60" relative="1" as="geometry">
            <mxPoint x="599" y="779.31" as="sourcePoint" />
            <mxPoint x="680" y="779.9100000000001" as="targetPoint" />
          </mxGeometry>
        </mxCell>
        <mxCell id="9V2yh8_go57z5YyNE77b-52" value="" style="edgeStyle=elbowEdgeStyle;rounded=0;elbow=vertical;html=1;labelBackgroundColor=#ffffff;endArrow=classic;endFill=1;endSize=6;jettySize=auto;orthogonalLoop=1;strokeWidth=1;fontSize=14;entryX=1;entryY=0.5;entryDx=0;entryDy=0;" edge="1" parent="1" target="9V2yh8_go57z5YyNE77b-47">
          <mxGeometry width="60" height="60" relative="1" as="geometry">
            <mxPoint x="970" y="820" as="sourcePoint" />
            <mxPoint x="950" y="840" as="targetPoint" />
            <Array as="points">
              <mxPoint x="990" y="860" />
            </Array>
          </mxGeometry>
        </mxCell>
        <mxCell id="9V2yh8_go57z5YyNE77b-53" value="" style="endArrow=none;html=1;rounded=0;entryX=1;entryY=0.612;entryDx=0;entryDy=0;entryPerimeter=0;" edge="1" parent="1" target="9V2yh8_go57z5YyNE77b-44">
          <mxGeometry width="50" height="50" relative="1" as="geometry">
            <mxPoint x="970" y="820" as="sourcePoint" />
            <mxPoint x="720" y="740" as="targetPoint" />
          </mxGeometry>
        </mxCell>
        <mxCell id="9V2yh8_go57z5YyNE77b-54" value="" style="endArrow=none;dashed=1;html=1;rounded=0;entryX=0.5;entryY=1;entryDx=0;entryDy=0;" edge="1" parent="1" target="9V2yh8_go57z5YyNE77b-42">
          <mxGeometry width="50" height="50" relative="1" as="geometry">
            <mxPoint x="910" y="670" as="sourcePoint" />
            <mxPoint x="910" y="625" as="targetPoint" />
          </mxGeometry>
        </mxCell>
        <mxCell id="9V2yh8_go57z5YyNE77b-55" value="" style="endArrow=none;dashed=1;html=1;rounded=0;exitX=0.5;exitY=0;exitDx=0;exitDy=0;" edge="1" parent="1" source="9V2yh8_go57z5YyNE77b-45">
          <mxGeometry width="50" height="50" relative="1" as="geometry">
            <mxPoint x="719.66" y="670" as="sourcePoint" />
            <mxPoint x="720" y="490" as="targetPoint" />
          </mxGeometry>
        </mxCell>
        <mxCell id="9V2yh8_go57z5YyNE77b-56" value="" style="endArrow=none;dashed=1;html=1;rounded=0;entryX=0.5;entryY=1;entryDx=0;entryDy=0;" edge="1" parent="1">
          <mxGeometry width="50" height="50" relative="1" as="geometry">
            <mxPoint x="720" y="1100" as="sourcePoint" />
            <mxPoint x="719.66" y="780" as="targetPoint" />
          </mxGeometry>
        </mxCell>
        <mxCell id="9V2yh8_go57z5YyNE77b-57" value="" style="endArrow=none;dashed=1;html=1;rounded=0;entryX=0.5;entryY=1;entryDx=0;entryDy=0;" edge="1" parent="1">
          <mxGeometry width="50" height="50" relative="1" as="geometry">
            <mxPoint x="909" y="1100" as="sourcePoint" />
            <mxPoint x="909.31" y="915" as="targetPoint" />
          </mxGeometry>
        </mxCell>
        <mxCell id="9V2yh8_go57z5YyNE77b-58" value="getData()" style="text;html=1;align=center;verticalAlign=middle;resizable=0;points=[];autosize=1;strokeColor=none;fillColor=none;" vertex="1" parent="1">
          <mxGeometry x="780" y="670" width="70" height="30" as="geometry" />
        </mxCell>
        <mxCell id="9V2yh8_go57z5YyNE77b-59" value="return (data)" style="text;html=1;align=center;verticalAlign=middle;resizable=0;points=[];autosize=1;strokeColor=none;fillColor=none;" vertex="1" parent="1">
          <mxGeometry x="770" y="750" width="90" height="30" as="geometry" />
        </mxCell>
        <mxCell id="9V2yh8_go57z5YyNE77b-60" value="check()" style="text;html=1;align=center;verticalAlign=middle;resizable=0;points=[];autosize=1;strokeColor=none;fillColor=none;" vertex="1" parent="1">
          <mxGeometry x="970" y="820" width="60" height="30" as="geometry" />
        </mxCell>
        <mxCell id="9V2yh8_go57z5YyNE77b-61" value="get()" style="text;html=1;align=center;verticalAlign=middle;resizable=0;points=[];autosize=1;strokeColor=none;fillColor=none;" vertex="1" parent="1">
          <mxGeometry x="620" y="670" width="50" height="30" as="geometry" />
        </mxCell>
        <mxCell id="9V2yh8_go57z5YyNE77b-62" value="return" style="text;html=1;align=center;verticalAlign=middle;resizable=0;points=[];autosize=1;strokeColor=none;fillColor=none;" vertex="1" parent="1">
          <mxGeometry x="620" y="750" width="50" height="30" as="geometry" />
        </mxCell>
        <mxCell id="9V2yh8_go57z5YyNE77b-63" value="" style="endArrow=none;dashed=1;html=1;rounded=0;entryX=0.5;entryY=1;entryDx=0;entryDy=0;" edge="1" parent="1">
          <mxGeometry width="50" height="50" relative="1" as="geometry">
            <mxPoint x="570" y="1100" as="sourcePoint" />
            <mxPoint x="569.66" y="780" as="targetPoint" />
          </mxGeometry>
        </mxCell>
        <mxCell id="9V2yh8_go57z5YyNE77b-64" value="" style="rounded=0;whiteSpace=wrap;html=1;" vertex="1" parent="1">
          <mxGeometry x="165" y="850" width="20" height="35" as="geometry" />
        </mxCell>
        <mxCell id="9V2yh8_go57z5YyNE77b-65" value="" style="endArrow=classic;html=1;rounded=0;entryX=1;entryY=0;entryDx=0;entryDy=0;exitX=0;exitY=0.75;exitDx=0;exitDy=0;" edge="1" parent="1" source="9V2yh8_go57z5YyNE77b-44" target="9V2yh8_go57z5YyNE77b-64">
          <mxGeometry width="50" height="50" relative="1" as="geometry">
            <mxPoint x="700" y="820" as="sourcePoint" />
            <mxPoint x="750" y="770" as="targetPoint" />
          </mxGeometry>
        </mxCell>
        <mxCell id="9V2yh8_go57z5YyNE77b-66" value="" style="endArrow=classic;html=1;rounded=0;entryX=-0.01;entryY=0.86;entryDx=0;entryDy=0;entryPerimeter=0;" edge="1" parent="1" target="9V2yh8_go57z5YyNE77b-44">
          <mxGeometry width="50" height="50" relative="1" as="geometry">
            <mxPoint x="830" y="880" as="sourcePoint" />
            <mxPoint x="840" y="890" as="targetPoint" />
          </mxGeometry>
        </mxCell>
        <mxCell id="9V2yh8_go57z5YyNE77b-67" value="" style="endArrow=none;html=1;rounded=0;entryX=0;entryY=0.75;entryDx=0;entryDy=0;" edge="1" parent="1" target="9V2yh8_go57z5YyNE77b-44">
          <mxGeometry width="50" height="50" relative="1" as="geometry">
            <mxPoint x="830" y="880" as="sourcePoint" />
            <mxPoint x="750" y="800" as="targetPoint" />
          </mxGeometry>
        </mxCell>
        <mxCell id="9V2yh8_go57z5YyNE77b-68" value="[Alarm] requestTrap()" style="text;html=1;align=center;verticalAlign=middle;resizable=0;points=[];autosize=1;strokeColor=none;fillColor=none;" vertex="1" parent="1">
          <mxGeometry x="730" y="825" width="140" height="30" as="geometry" />
        </mxCell>
        <mxCell id="9V2yh8_go57z5YyNE77b-69" value="[Normal] return" style="text;html=1;align=center;verticalAlign=middle;resizable=0;points=[];autosize=1;strokeColor=none;fillColor=none;" vertex="1" parent="1">
          <mxGeometry x="800" y="878" width="100" height="30" as="geometry" />
        </mxCell>
        <mxCell id="9V2yh8_go57z5YyNE77b-75" value="return" style="text;html=1;align=center;verticalAlign=middle;resizable=0;points=[];autosize=1;strokeColor=none;fillColor=none;" vertex="1" parent="1">
          <mxGeometry x="200" y="280" width="50" height="30" as="geometry" />
        </mxCell>
        <mxCell id="9V2yh8_go57z5YyNE77b-76" value="create" style="text;html=1;align=center;verticalAlign=middle;resizable=0;points=[];autosize=1;strokeColor=none;fillColor=none;" vertex="1" parent="1">
          <mxGeometry x="280" y="240" width="60" height="30" as="geometry" />
        </mxCell>
        <mxCell id="9V2yh8_go57z5YyNE77b-77" value="response(udp)" style="text;html=1;align=center;verticalAlign=middle;resizable=0;points=[];autosize=1;strokeColor=none;fillColor=none;" vertex="1" parent="1">
          <mxGeometry x="170" y="430" width="100" height="30" as="geometry" />
        </mxCell>
        <mxCell id="9V2yh8_go57z5YyNE77b-78" value="return(data)" style="text;html=1;align=center;verticalAlign=middle;resizable=0;points=[];autosize=1;strokeColor=none;fillColor=none;" vertex="1" parent="1">
          <mxGeometry x="385" y="410" width="90" height="30" as="geometry" />
        </mxCell>
        <mxCell id="9V2yh8_go57z5YyNE77b-81" value="Managed&amp;nbsp;&lt;br&gt;Device" style="text;html=1;align=center;verticalAlign=middle;resizable=0;points=[];autosize=1;strokeColor=none;fillColor=none;" vertex="1" parent="1">
          <mxGeometry x="530" y="130" width="80" height="40" as="geometry" />
        </mxCell>
        <mxCell id="9V2yh8_go57z5YyNE77b-86" value="" style="rounded=0;whiteSpace=wrap;html=1;" vertex="1" parent="1">
          <mxGeometry x="-220" y="920" width="20" height="85" as="geometry" />
        </mxCell>
        <mxCell id="9V2yh8_go57z5YyNE77b-91" value="Trap&lt;br&gt;Listener" style="whiteSpace=wrap;html=1;aspect=fixed;" vertex="1" parent="1">
          <mxGeometry x="25" y="50" width="70" height="70" as="geometry" />
        </mxCell>
        <mxCell id="9V2yh8_go57z5YyNE77b-92" value="" style="endArrow=none;dashed=1;html=1;rounded=0;entryX=0.5;entryY=1;entryDx=0;entryDy=0;exitX=0.5;exitY=0;exitDx=0;exitDy=0;" edge="1" parent="1" target="9V2yh8_go57z5YyNE77b-91">
          <mxGeometry width="50" height="50" relative="1" as="geometry">
            <mxPoint x="59.66000000000001" y="850" as="sourcePoint" />
            <mxPoint x="59.66000000000001" y="290" as="targetPoint" />
          </mxGeometry>
        </mxCell>
        <mxCell id="9V2yh8_go57z5YyNE77b-93" value="" style="endArrow=classic;html=1;rounded=0;exitX=0.957;exitY=0.105;exitDx=0;exitDy=0;exitPerimeter=0;" edge="1" parent="1">
          <mxGeometry width="50" height="50" relative="1" as="geometry">
            <mxPoint x="170" y="850" as="sourcePoint" />
            <mxPoint x="70" y="850" as="targetPoint" />
          </mxGeometry>
        </mxCell>
        <mxCell id="9V2yh8_go57z5YyNE77b-94" value="invoke()" style="text;html=1;align=center;verticalAlign=middle;resizable=0;points=[];autosize=1;strokeColor=none;fillColor=none;" vertex="1" parent="1">
          <mxGeometry x="85" y="825" width="70" height="30" as="geometry" />
        </mxCell>
        <mxCell id="9V2yh8_go57z5YyNE77b-95" value="" style="rounded=0;whiteSpace=wrap;html=1;" vertex="1" parent="1">
          <mxGeometry x="50" y="850" width="20" height="90" as="geometry" />
        </mxCell>
        <mxCell id="9V2yh8_go57z5YyNE77b-96" value="" style="html=1;labelBackgroundColor=#ffffff;startArrow=none;startFill=0;startSize=6;endArrow=classic;endFill=1;endSize=6;jettySize=auto;orthogonalLoop=1;strokeWidth=1;dashed=1;fontSize=14;rounded=0;entryX=0;entryY=1;entryDx=0;entryDy=0;exitX=1.083;exitY=0.393;exitDx=0;exitDy=0;exitPerimeter=0;" edge="1" parent="1" source="9V2yh8_go57z5YyNE77b-95">
          <mxGeometry width="60" height="60" relative="1" as="geometry">
            <mxPoint x="35" y="885" as="sourcePoint" />
            <mxPoint x="165" y="885" as="targetPoint" />
          </mxGeometry>
        </mxCell>
        <mxCell id="9V2yh8_go57z5YyNE77b-97" value="return" style="text;html=1;align=center;verticalAlign=middle;resizable=0;points=[];autosize=1;strokeColor=none;fillColor=none;" vertex="1" parent="1">
          <mxGeometry x="95" y="878" width="50" height="30" as="geometry" />
        </mxCell>
        <mxCell id="9V2yh8_go57z5YyNE77b-98" value="" style="rounded=0;whiteSpace=wrap;html=1;" vertex="1" parent="1">
          <mxGeometry x="165" y="1000" width="20" height="40" as="geometry" />
        </mxCell>
        <mxCell id="9V2yh8_go57z5YyNE77b-99" value="" style="endArrow=classic;html=1;rounded=0;exitX=0.957;exitY=0.105;exitDx=0;exitDy=0;exitPerimeter=0;" edge="1" parent="1">
          <mxGeometry width="50" height="50" relative="1" as="geometry">
            <mxPoint x="50" y="867.16" as="sourcePoint" />
            <mxPoint x="-30" y="867" as="targetPoint" />
          </mxGeometry>
        </mxCell>
        <mxCell id="9V2yh8_go57z5YyNE77b-102" value="&amp;lt;&amp;lt;thread&amp;gt;&amp;gt;&lt;br&gt;&lt;br&gt;Trap&lt;br&gt;Handler" style="whiteSpace=wrap;html=1;aspect=fixed;" vertex="1" parent="1">
          <mxGeometry x="-100" y="825" width="70" height="70" as="geometry" />
        </mxCell>
        <mxCell id="9V2yh8_go57z5YyNE77b-103" value="" style="rounded=0;whiteSpace=wrap;html=1;" vertex="1" parent="1">
          <mxGeometry x="-75" y="895" width="20" height="55" as="geometry" />
        </mxCell>
        <mxCell id="9V2yh8_go57z5YyNE77b-104" value="" style="endArrow=classic;html=1;rounded=0;exitX=0.019;exitY=0.455;exitDx=0;exitDy=0;exitPerimeter=0;" edge="1" parent="1" source="9V2yh8_go57z5YyNE77b-103">
          <mxGeometry width="50" height="50" relative="1" as="geometry">
            <mxPoint x="-80" y="920" as="sourcePoint" />
            <mxPoint x="-200" y="920" as="targetPoint" />
          </mxGeometry>
        </mxCell>
        <mxCell id="9V2yh8_go57z5YyNE77b-105" value="sendTrap(udp)" style="text;html=1;align=center;verticalAlign=middle;resizable=0;points=[];autosize=1;strokeColor=none;fillColor=none;" vertex="1" parent="1">
          <mxGeometry x="-195" y="895" width="100" height="30" as="geometry" />
        </mxCell>
        <mxCell id="9V2yh8_go57z5YyNE77b-106" value="create" style="text;html=1;align=center;verticalAlign=middle;resizable=0;points=[];autosize=1;strokeColor=none;fillColor=none;" vertex="1" parent="1">
          <mxGeometry x="-20" y="838" width="60" height="30" as="geometry" />
        </mxCell>
        <mxCell id="9V2yh8_go57z5YyNE77b-107" value="" style="endArrow=classic;html=1;rounded=0;exitX=0.019;exitY=0.455;exitDx=0;exitDy=0;exitPerimeter=0;entryX=-0.084;entryY=0.114;entryDx=0;entryDy=0;entryPerimeter=0;" edge="1" parent="1" target="9V2yh8_go57z5YyNE77b-98">
          <mxGeometry width="50" height="50" relative="1" as="geometry">
            <mxPoint x="-200" y="1004.31" as="sourcePoint" />
            <mxPoint x="170" y="1004" as="targetPoint" />
          </mxGeometry>
        </mxCell>
        <mxCell id="9V2yh8_go57z5YyNE77b-108" value="request(udp)" style="text;html=1;align=center;verticalAlign=middle;resizable=0;points=[];autosize=1;strokeColor=none;fillColor=none;" vertex="1" parent="1">
          <mxGeometry x="-50" y="980" width="90" height="30" as="geometry" />
        </mxCell>
        <mxCell id="9V2yh8_go57z5YyNE77b-109" value="" style="endArrow=none;dashed=1;html=1;rounded=0;entryX=0.5;entryY=1;entryDx=0;entryDy=0;exitX=0.5;exitY=0;exitDx=0;exitDy=0;" edge="1" parent="1" source="9V2yh8_go57z5YyNE77b-98">
          <mxGeometry width="50" height="50" relative="1" as="geometry">
            <mxPoint x="174.66" y="945" as="sourcePoint" />
            <mxPoint x="174.66" y="885" as="targetPoint" />
          </mxGeometry>
        </mxCell>
        <mxCell id="9V2yh8_go57z5YyNE77b-110" value="" style="endArrow=none;dashed=1;html=1;rounded=0;entryX=0.5;entryY=1;entryDx=0;entryDy=0;exitX=0.5;exitY=0;exitDx=0;exitDy=0;" edge="1" parent="1">
          <mxGeometry width="50" height="50" relative="1" as="geometry">
            <mxPoint x="174.66" y="1100" as="sourcePoint" />
            <mxPoint x="174.66" y="1040" as="targetPoint" />
          </mxGeometry>
        </mxCell>
        <mxCell id="9V2yh8_go57z5YyNE77b-111" value="" style="endArrow=none;dashed=1;html=1;rounded=0;entryX=0.5;entryY=1;entryDx=0;entryDy=0;" edge="1" parent="1">
          <mxGeometry width="50" height="50" relative="1" as="geometry">
            <mxPoint x="-65" y="1100" as="sourcePoint" />
            <mxPoint x="-65.34" y="950" as="targetPoint" />
          </mxGeometry>
        </mxCell>
        <mxCell id="9V2yh8_go57z5YyNE77b-112" value="" style="endArrow=none;dashed=1;html=1;rounded=0;entryX=0.5;entryY=1;entryDx=0;entryDy=0;" edge="1" parent="1">
          <mxGeometry width="50" height="50" relative="1" as="geometry">
            <mxPoint x="60" y="1100" as="sourcePoint" />
            <mxPoint x="59.660000000000004" y="940" as="targetPoint" />
          </mxGeometry>
        </mxCell>
        <mxCell id="9V2yh8_go57z5YyNE77b-113" value="" style="shape=mxgraph.sysml.x;" vertex="1" parent="1">
          <mxGeometry x="-85" y="950" width="40" height="40" as="geometry" />
        </mxCell>
        <mxCell id="9V2yh8_go57z5YyNE77b-114" value="" style="endArrow=none;dashed=1;html=1;rounded=0;entryX=0.5;entryY=1;entryDx=0;entryDy=0;" edge="1" parent="1">
          <mxGeometry width="50" height="50" relative="1" as="geometry">
            <mxPoint x="-210" y="1100" as="sourcePoint" />
            <mxPoint x="-210.34" y="1000" as="targetPoint" />
          </mxGeometry>
        </mxCell>
        <mxCell id="9V2yh8_go57z5YyNE77b-115" value="Asynchronous&lt;br&gt;message" style="text;html=1;align=center;verticalAlign=middle;resizable=0;points=[];autosize=1;strokeColor=none;fillColor=none;" vertex="1" parent="1">
          <mxGeometry x="-335" y="847.5" width="100" height="40" as="geometry" />
        </mxCell>
        <mxCell id="9V2yh8_go57z5YyNE77b-116" value="" style="endArrow=classic;html=1;rounded=0;exitX=0.763;exitY=0.988;exitDx=0;exitDy=0;exitPerimeter=0;entryX=-0.045;entryY=0.733;entryDx=0;entryDy=0;entryPerimeter=0;" edge="1" parent="1" source="9V2yh8_go57z5YyNE77b-115" target="9V2yh8_go57z5YyNE77b-105">
          <mxGeometry width="50" height="50" relative="1" as="geometry">
            <mxPoint x="-80" y="970" as="sourcePoint" />
            <mxPoint x="-30" y="920" as="targetPoint" />
          </mxGeometry>
        </mxCell>
        <mxCell id="9V2yh8_go57z5YyNE77b-117" value="lifeline" style="text;html=1;align=center;verticalAlign=middle;resizable=0;points=[];autosize=1;strokeColor=none;fillColor=none;" vertex="1" parent="1">
          <mxGeometry x="-300" y="1110" width="60" height="30" as="geometry" />
        </mxCell>
        <mxCell id="9V2yh8_go57z5YyNE77b-118" value="" style="endArrow=classic;html=1;rounded=0;" edge="1" parent="1">
          <mxGeometry width="50" height="50" relative="1" as="geometry">
            <mxPoint x="-250" y="1120" as="sourcePoint" />
            <mxPoint x="-220" y="1100" as="targetPoint" />
          </mxGeometry>
        </mxCell>
        <mxCell id="9V2yh8_go57z5YyNE77b-119" value="Object" style="text;html=1;align=center;verticalAlign=middle;resizable=0;points=[];autosize=1;strokeColor=none;fillColor=none;" vertex="1" parent="1">
          <mxGeometry x="340" y="20" width="60" height="30" as="geometry" />
        </mxCell>
        <mxCell id="9V2yh8_go57z5YyNE77b-120" value="" style="endArrow=classic;html=1;rounded=0;" edge="1" parent="1">
          <mxGeometry width="50" height="50" relative="1" as="geometry">
            <mxPoint x="350" y="40" as="sourcePoint" />
            <mxPoint x="320" y="70" as="targetPoint" />
          </mxGeometry>
        </mxCell>
        <mxCell id="9V2yh8_go57z5YyNE77b-121" value="" style="endArrow=none;dashed=1;html=1;rounded=0;entryX=0.5;entryY=1;entryDx=0;entryDy=0;" edge="1" parent="1">
          <mxGeometry width="50" height="50" relative="1" as="geometry">
            <mxPoint x="376" y="1100" as="sourcePoint" />
            <mxPoint x="375.5" y="460" as="targetPoint" />
          </mxGeometry>
        </mxCell>
        <mxCell id="9V2yh8_go57z5YyNE77b-122" value="" style="shape=mxgraph.sysml.x;" vertex="1" parent="1">
          <mxGeometry x="355" y="480" width="40" height="40" as="geometry" />
        </mxCell>
        <mxCell id="9V2yh8_go57z5YyNE77b-123" value="Object&amp;nbsp;&lt;br&gt;self-destruction" style="text;html=1;align=center;verticalAlign=middle;resizable=0;points=[];autosize=1;strokeColor=none;fillColor=none;" vertex="1" parent="1">
          <mxGeometry x="380" y="555" width="100" height="40" as="geometry" />
        </mxCell>
        <mxCell id="9V2yh8_go57z5YyNE77b-124" value="" style="endArrow=classic;html=1;rounded=0;exitX=0.46;exitY=-0.029;exitDx=0;exitDy=0;exitPerimeter=0;" edge="1" parent="1" source="9V2yh8_go57z5YyNE77b-123">
          <mxGeometry width="50" height="50" relative="1" as="geometry">
            <mxPoint x="430" y="550" as="sourcePoint" />
            <mxPoint x="400" y="510" as="targetPoint" />
          </mxGeometry>
        </mxCell>
        <mxCell id="9V2yh8_go57z5YyNE77b-125" value="self-call" style="text;html=1;align=center;verticalAlign=middle;resizable=0;points=[];autosize=1;strokeColor=none;fillColor=none;" vertex="1" parent="1">
          <mxGeometry x="970" y="750" width="60" height="30" as="geometry" />
        </mxCell>
        <mxCell id="9V2yh8_go57z5YyNE77b-126" value="" style="endArrow=classic;html=1;rounded=0;" edge="1" parent="1" source="9V2yh8_go57z5YyNE77b-125">
          <mxGeometry width="50" height="50" relative="1" as="geometry">
            <mxPoint x="990" y="780" as="sourcePoint" />
            <mxPoint x="960" y="810" as="targetPoint" />
          </mxGeometry>
        </mxCell>
        <mxCell id="9V2yh8_go57z5YyNE77b-127" value="invoke()" style="text;html=1;align=center;verticalAlign=middle;resizable=0;points=[];autosize=1;strokeColor=none;fillColor=none;" vertex="1" parent="1">
          <mxGeometry x="190" y="220" width="70" height="30" as="geometry" />
        </mxCell>
      </root>
    </mxGraphModel>
  </diagram>
</mxfile>
